<svg width="129" height="35" viewBox="0 0 129 35" fill="none" xmlns="http://www.w3.org/2000/svg">
<path d="M32.0651 26.9257C30.0937 26.9257 28.3499 26.5227 26.8335 25.7167C25.3423 24.9106 24.1671 23.7897 23.3078 22.354C22.4738 20.8931 22.0568 19.218 22.0568 17.3289C22.0568 15.3894 22.4738 13.664 23.3078 12.1527C24.1418 10.6414 25.3044 9.4575 26.7955 8.60109C28.2867 7.71949 30.0306 7.2787 32.0272 7.2787C33.9227 7.2787 35.5907 7.68171 37.0313 8.48774C38.4972 9.29377 39.6472 10.4021 40.4812 11.8126C41.3152 13.2232 41.7322 14.8478 41.7322 16.6866C41.7322 16.9385 41.7196 17.2281 41.6943 17.5556C41.6943 17.8579 41.6817 18.1727 41.6564 18.5002H26.0753V15.1753H35.9319C35.8561 14.1677 35.4517 13.3491 34.7188 12.7194C34.0112 12.0897 33.1266 11.7748 32.0651 11.7748C31.2563 11.7748 30.5108 11.9638 29.8284 12.3416C29.1713 12.6942 28.6405 13.2484 28.2361 14.004C27.857 14.7345 27.6675 15.6791 27.6675 16.8377V17.9334C27.6675 18.7898 27.8444 19.5581 28.1982 20.2382C28.5521 20.8931 29.0575 21.4094 29.7146 21.7873C30.3718 22.1399 31.13 22.3162 31.9893 22.3162C32.798 22.3162 33.4804 22.1399 34.0364 21.7873C34.6177 21.4346 35.06 20.9812 35.3633 20.4271H41.1636C40.8097 21.6361 40.2032 22.7318 39.3439 23.7142C38.4846 24.6965 37.4231 25.4774 36.1594 26.0567C34.921 26.636 33.5562 26.9257 32.0651 26.9257Z" fill="#041728"/>
<path d="M53.4637 26.9257C51.4924 26.9257 49.7485 26.5227 48.2321 25.7167C46.7409 24.9106 45.5657 23.7897 44.7064 22.354C43.8724 20.8931 43.4554 19.218 43.4554 17.3289C43.4554 15.3894 43.8724 13.664 44.7064 12.1527C45.5404 10.6414 46.703 9.4575 48.1942 8.60109C49.6853 7.71949 51.4292 7.2787 53.4258 7.2787C55.3213 7.2787 56.9894 7.68171 58.43 8.48774C59.8958 9.29377 61.0458 10.4021 61.8798 11.8126C62.7138 13.2232 63.1308 14.8478 63.1308 16.6866C63.1308 16.9385 63.1182 17.2281 63.0929 17.5556C63.0929 17.8579 63.0803 18.1727 63.055 18.5002H47.4739V15.1753H57.3306C57.2547 14.1677 56.8504 13.3491 56.1174 12.7194C55.4098 12.0897 54.5252 11.7748 53.4637 11.7748C52.6549 11.7748 51.9094 11.9638 51.227 12.3416C50.5699 12.6942 50.0391 13.2484 49.6348 14.004C49.2557 14.7345 49.0661 15.6791 49.0661 16.8377V17.9334C49.0661 18.7898 49.243 19.5581 49.5969 20.2382C49.9507 20.8931 50.4562 21.4094 51.1133 21.7873C51.7704 22.1399 52.5286 22.3162 53.3879 22.3162C54.1966 22.3162 54.879 22.1399 55.435 21.7873C56.0163 21.4346 56.4586 20.9812 56.7619 20.4271H62.5622C62.2084 21.6361 61.6018 22.7318 60.7425 23.7142C59.8832 24.6965 58.8217 25.4774 57.558 26.0567C56.3196 26.636 54.9548 26.9257 53.4637 26.9257Z" fill="#041728"/>
<path d="M71.4883 26.9257C69.9972 26.9257 68.7714 26.6738 67.811 26.1701C66.8506 25.6663 66.1429 24.9988 65.688 24.1676C65.2584 23.3112 65.0435 22.3666 65.0435 21.3339C65.0435 20.2004 65.3216 19.2054 65.8776 18.349C66.4589 17.4674 67.3561 16.7748 68.5692 16.271C69.7823 15.7672 71.3367 15.5153 73.2322 15.5153H77.8572C77.8572 14.6589 77.7435 13.9662 77.5161 13.4373C77.2886 12.8831 76.9221 12.4801 76.4166 12.2282C75.9364 11.9512 75.292 11.8126 74.4832 11.8126C73.5986 11.8126 72.8278 12.0015 72.1707 12.3794C71.5388 12.7572 71.1471 13.3491 70.9955 14.1552H65.5364C65.6627 12.7698 66.1177 11.5733 66.9012 10.5658C67.6846 9.53306 68.7208 8.72703 70.0098 8.1477C71.324 7.56836 72.8278 7.2787 74.5211 7.2787C76.3408 7.2787 77.9204 7.56836 79.2599 8.1477C80.6247 8.72703 81.6736 9.59604 82.4065 10.7547C83.1647 11.8882 83.5438 13.2861 83.5438 14.9486V26.4723H78.8429L78.2364 23.6386H78.0847C77.6803 24.1928 77.238 24.6839 76.7578 25.1121C76.2776 25.5152 75.7595 25.8552 75.2035 26.1323C74.6728 26.3842 74.0915 26.5731 73.4596 26.699C72.8278 26.8501 72.1707 26.9257 71.4883 26.9257ZM73.4976 22.6185C74.1294 22.6185 74.6728 22.5177 75.1277 22.3162C75.5826 22.1147 75.9744 21.8502 76.3029 21.5228C76.6568 21.1701 76.9348 20.7671 77.1369 20.3137C77.3391 19.8603 77.4908 19.3692 77.5919 18.8402H73.9146C73.2574 18.8402 72.7141 18.9284 72.2844 19.1047C71.88 19.2558 71.5768 19.4825 71.3746 19.7848C71.1724 20.0618 71.0713 20.4019 71.0713 20.8049C71.0713 21.2079 71.1724 21.548 71.3746 21.825C71.5768 22.0769 71.8674 22.2784 72.2465 22.4296C72.6256 22.5555 73.0426 22.6185 73.4976 22.6185Z" fill="#041728"/>
<path d="M86.377 26.4723V7.73209H91.1916L91.6845 11.8504H91.8361C92.3668 10.5406 92.9608 9.55825 93.6179 8.90335C94.3003 8.24845 95.0711 7.82025 95.9304 7.61874C96.7897 7.39204 97.7375 7.2787 98.7737 7.2787V13.2861H97.2194C96.4106 13.2861 95.6777 13.3743 95.0206 13.5506C94.3887 13.7269 93.8453 14.0166 93.3904 14.4196C92.9608 14.7975 92.6322 15.3138 92.4047 15.9687C92.1773 16.5984 92.0636 17.3793 92.0636 18.3112V26.4723H86.377Z" fill="#041728"/>
<path d="M100.672 26.4723V0.0244141H106.358V26.4723H100.672Z" fill="#041728"/>
<path d="M119.257 34.4822C118.195 34.4822 117.121 34.3437 116.034 34.0666C114.973 33.7896 113.975 33.3614 113.04 32.782C112.13 32.2279 111.359 31.4722 110.727 30.5151C110.12 29.5831 109.754 28.4622 109.628 27.1524H115.238C115.365 27.6814 115.605 28.1473 115.959 28.5504C116.312 28.9534 116.755 29.2682 117.285 29.4949C117.816 29.7216 118.423 29.835 119.105 29.835C119.99 29.835 120.723 29.6461 121.304 29.2682C121.911 28.9156 122.365 28.374 122.669 27.6436C122.972 26.9131 123.124 25.9811 123.124 24.8477V23.752H122.972C122.416 24.5328 121.658 25.1751 120.697 25.6789C119.737 26.1575 118.511 26.3967 117.02 26.3967C115.403 26.3967 114.025 26.0693 112.888 25.4144C111.751 24.7595 110.879 23.7771 110.272 22.4673C109.666 21.1575 109.362 19.5329 109.362 17.5934V7.73209H115.011V17.2911C115.011 18.7269 115.327 19.8477 115.959 20.6538C116.616 21.4598 117.627 21.8628 118.991 21.8628C119.927 21.8628 120.697 21.6739 121.304 21.2961C121.911 20.8931 122.365 20.3389 122.669 19.6336C122.972 18.9284 123.124 18.072 123.124 17.0644V7.73209H128.81V24.8854C128.81 27.0265 128.381 28.8022 127.521 30.2128C126.662 31.6485 125.499 32.7191 124.034 33.4243C122.593 34.1296 121.001 34.4822 119.257 34.4822Z" fill="#041728"/>
<path d="M11.1049 0.23432H0.574219V26.4723H12.6845C17.0464 26.4723 20.5825 22.9482 20.5825 18.6009C20.5825 15.8376 19.1538 13.4069 16.9924 12.0024C17.9239 10.7723 18.4763 9.24091 18.4763 7.58096C18.4763 3.52352 15.176 0.23432 11.1049 0.23432Z" fill="#041728"/>
<path d="M0.574219 4.95508H10.5783C12.0323 4.95508 13.211 6.12979 13.211 7.57888C13.211 9.02796 12.0323 10.2027 10.5783 10.2027H0.574219V4.95508Z" fill="#FFC701"/>
<path d="M0.574219 14.9255H11.6314C13.667 14.9255 15.3171 16.5701 15.3171 18.5988C15.3171 20.6276 13.667 22.2722 11.6314 22.2722H0.574219V14.9255Z" fill="#FFC701"/>
</svg>
