<svg width="14" height="14" viewBox="0 0 14 14" fill="none" xmlns="http://www.w3.org/2000/svg">
<g clip-path="url(#clip0_1385_3134)">
<path d="M12.4008 4C12.0008 2.8 11.2008 2 10.0008 1.5V0H9.00078V1.4H8.60078C7.50078 1.4 6.60078 1.8 5.80078 2.6L5.40078 3L4.00078 2.5C3.70078 2.4 3.40078 2.3 3.00078 2.3C2.40078 2.3 1.80078 2.5 1.30078 2.9C0.700782 3.3 0.400781 3.8 0.200781 4.3C0.000781253 5 0.000781253 5.6 0.200781 6.3C0.500781 7 0.800782 7.5 1.30078 7.8C0.900782 9.3 1.20078 10.6 2.30078 11.7C3.10078 12.5 4.00078 12.9 5.10078 12.9C5.60078 12.9 5.90078 12.9 6.20078 12.8C6.80078 13.6 7.60078 14.1 8.60078 14.1C8.90078 14.1 9.30078 14.1 9.60078 14C10.2008 13.8 10.6008 13.4 11.0008 12.9C11.4008 12.3 11.6008 11.8 11.6008 11.2C11.6008 10.8 11.6008 10.5 11.5008 10.2L11.0008 8.6L11.6008 8.2C12.4008 7.4 12.8008 6.3 12.7008 5.1H14.0008V4H12.4008ZM2.70078 6.3C2.10078 6 1.90078 5.6 2.10078 5C2.30078 4.4 2.70078 4.2 3.30078 4.4L6.50078 5.6C4.90078 6.4 3.70078 6.6 2.70078 6.3ZM9.00078 11.9C8.40078 12.1 8.00078 11.9 7.70078 11.3C7.40078 10.3 7.60078 9.1 8.40078 7.5L9.60078 10.6C9.80078 11.3 9.60078 11.7 9.00078 11.9ZM10.2008 6.6L9.60078 5V4.9L9.30078 4.6H9.20078L7.60078 4C8.00078 3.7 8.40078 3.5 8.90078 3.5C9.40078 3.5 9.90078 3.7 10.3008 4.1C10.7008 4.5 10.9008 4.9 10.9008 5.4C10.7008 5.7 10.5008 6.2 10.2008 6.6Z" fill="url(#paint0_linear_1385_3134)"/>
</g>
<defs>
<linearGradient id="paint0_linear_1385_3134" x1="7.02578" y1="0" x2="7.02578" y2="14.1" gradientUnits="userSpaceOnUse">
<stop offset="0.235" stop-color="#FF9D24"/>
<stop offset="0.985" stop-color="#FFC670"/>
</linearGradient>
<clipPath id="clip0_1385_3134">
<rect width="14" height="14" fill="white"/>
</clipPath>
</defs>
</svg>
