<svg width="20" height="21" viewBox="0 0 20 21" fill="none" xmlns="http://www.w3.org/2000/svg">
<path d="M18.3307 11.0818C18.3291 12.3068 18.3199 13.3468 18.2507 14.201C18.1699 15.1927 18.0041 16.021 17.6341 16.7085C17.4726 17.01 17.2676 17.286 17.0257 17.5277C16.3316 18.2218 15.4482 18.536 14.3282 18.686C13.2341 18.8335 11.8307 18.8335 10.0416 18.8335H9.95323C8.16323 18.8335 6.76156 18.8335 5.66656 18.686C4.5474 18.536 3.66323 18.2218 2.9699 17.5277C2.3549 16.9127 2.03656 16.1477 1.86823 15.1985C1.70156 14.2652 1.67156 13.1052 1.66573 11.6643C1.66406 11.2977 1.66406 10.9102 1.66406 10.5002V10.4552C1.66406 8.66518 1.66406 7.26352 1.81156 6.16852C1.96156 5.04935 2.27573 4.16518 2.9699 3.47185C3.66323 2.77768 4.5474 2.46352 5.66656 2.31352C6.6399 2.18268 7.89156 2.16768 9.41573 2.16602C9.57 2.16602 9.71795 2.2273 9.82703 2.33638C9.93611 2.44547 9.9974 2.59341 9.9974 2.74768C9.9974 2.90195 9.93611 3.0499 9.82703 3.15898C9.71795 3.26807 9.57 3.32935 9.41573 3.32935C7.8699 3.33102 6.72073 3.34435 5.82156 3.46518C4.83073 3.59852 4.23323 3.85185 3.79156 4.29352C3.3499 4.73518 3.0974 5.33352 2.96406 6.32518C2.82823 7.33352 2.82656 8.65685 2.82656 10.5002V11.1535L3.60323 10.4752C3.94367 10.1773 4.38458 10.02 4.83668 10.035C5.28879 10.05 5.71829 10.2362 6.03823 10.556L9.36323 13.881C9.6212 14.1391 9.96197 14.298 10.3255 14.3295C10.6891 14.3611 11.0521 14.2633 11.3507 14.0535L11.5824 13.891C12.013 13.5883 12.5337 13.4407 13.0591 13.4724C13.5845 13.504 14.0837 13.713 14.4749 14.0652L16.6691 16.0402C16.8899 15.576 17.0216 14.9668 17.0916 14.1068C17.1574 13.2968 17.1666 12.3135 17.1674 11.0818C17.1674 10.9276 17.2287 10.7796 17.3378 10.6705C17.4468 10.5615 17.5948 10.5002 17.7491 10.5002C17.9033 10.5002 18.0513 10.5615 18.1604 10.6705C18.2694 10.7796 18.3307 10.9276 18.3307 11.0818Z" fill="#041728" fill-opacity="0.24"/>
<path fill-rule="evenodd" clip-rule="evenodd" d="M14.582 9.66699C12.8145 9.66699 11.9304 9.66699 11.3812 9.11783C10.832 8.56866 10.832 7.68449 10.832 5.91699C10.832 4.14949 10.832 3.26533 11.3812 2.71616C11.9304 2.16699 12.8145 2.16699 14.582 2.16699C16.3495 2.16699 17.2337 2.16699 17.7829 2.71616C18.332 3.26533 18.332 4.14949 18.332 5.91699C18.332 7.68449 18.332 8.56866 17.7829 9.11783C17.2337 9.66699 16.3495 9.66699 14.582 9.66699ZM16.4254 4.07366C16.5789 4.22728 16.6652 4.4356 16.6652 4.65283C16.6652 4.87005 16.5789 5.07837 16.4254 5.23199L16.377 5.28033C16.3544 5.30318 16.3266 5.3202 16.296 5.32993C16.2654 5.33966 16.2328 5.34179 16.2012 5.33616C15.9454 5.28397 15.7106 5.1576 15.5262 4.97283C15.3414 4.78842 15.215 4.55364 15.1629 4.29783C15.1572 4.26619 15.1594 4.23365 15.1691 4.20302C15.1788 4.17239 15.1958 4.14458 15.2187 4.12199L15.267 4.07366C15.4206 3.92008 15.629 3.8338 15.8462 3.8338C16.0634 3.8338 16.2717 3.92008 16.4254 4.07366ZM14.457 7.20033C14.3798 7.28294 14.2974 7.36059 14.2104 7.43283C14.1321 7.49381 14.0475 7.54606 13.9579 7.58866C13.8829 7.62449 13.8012 7.65199 13.6404 7.70533L12.7895 7.98866C12.7507 8.00157 12.7089 8.00341 12.6691 7.99397C12.6292 7.98453 12.5928 7.96419 12.5638 7.93523C12.5348 7.90626 12.5145 7.86981 12.5051 7.82994C12.4956 7.79008 12.4975 7.74837 12.5104 7.70949L12.7937 6.85949C12.847 6.69783 12.8745 6.61699 12.9104 6.54116C12.9529 6.45116 13.0054 6.36616 13.0662 6.28866C13.1179 6.22199 13.1779 6.16199 13.2987 6.04199L14.7979 4.54283C14.8337 4.50699 14.8962 4.52366 14.9129 4.57199C14.9949 4.80634 15.1287 5.0192 15.3043 5.19477C15.4798 5.37034 15.6927 5.50412 15.927 5.58616C15.9754 5.60283 15.992 5.66533 15.9562 5.70116L14.457 7.20033Z" fill="#041728" fill-opacity="0.24"/>
</svg>
