<svg width="20" height="21" viewBox="0 0 20 21" fill="none" xmlns="http://www.w3.org/2000/svg">
<path fill-rule="evenodd" clip-rule="evenodd" d="M10.0013 18.8337C6.07297 18.8337 4.1088 18.8337 2.88797 17.6128C1.66797 16.3937 1.66797 14.4287 1.66797 10.5003C1.66797 6.57199 1.66797 4.60783 2.88797 3.38699C4.10964 2.16699 6.07297 2.16699 10.0013 2.16699C13.9296 2.16699 15.8938 2.16699 17.1138 3.38699C18.3346 4.60866 18.3346 6.57199 18.3346 10.5003C18.3346 14.4287 18.3346 16.3928 17.1138 17.6128C15.8946 18.8337 13.9296 18.8337 10.0013 18.8337ZM10.0013 7.37533C10.1671 7.37533 10.326 7.44117 10.4432 7.55838C10.5605 7.67559 10.6263 7.83457 10.6263 8.00033V9.87533H12.5013C12.6671 9.87533 12.826 9.94117 12.9432 10.0584C13.0605 10.1756 13.1263 10.3346 13.1263 10.5003C13.1263 10.6661 13.0605 10.8251 12.9432 10.9423C12.826 11.0595 12.6671 11.1253 12.5013 11.1253H10.6263V13.0003C10.6263 13.1661 10.5605 13.3251 10.4432 13.4423C10.326 13.5595 10.1671 13.6253 10.0013 13.6253C9.83554 13.6253 9.67657 13.5595 9.55936 13.4423C9.44215 13.3251 9.3763 13.1661 9.3763 13.0003V11.1253H7.5013C7.33554 11.1253 7.17657 11.0595 7.05936 10.9423C6.94215 10.8251 6.8763 10.6661 6.8763 10.5003C6.8763 10.3346 6.94215 10.1756 7.05936 10.0584C7.17657 9.94117 7.33554 9.87533 7.5013 9.87533H9.3763V8.00033C9.3763 7.83457 9.44215 7.67559 9.55936 7.55838C9.67657 7.44117 9.83554 7.37533 10.0013 7.37533Z" fill="#041728"/>
</svg>
