<svg width="16" height="16" viewBox="0 0 16 16" fill="none" xmlns="http://www.w3.org/2000/svg">
<path d="M6.0026 6.66634C7.47536 6.66634 8.66927 5.47243 8.66927 3.99967C8.66927 2.52692 7.47536 1.33301 6.0026 1.33301C4.52985 1.33301 3.33594 2.52692 3.33594 3.99967C3.33594 5.47243 4.52985 6.66634 6.0026 6.66634Z" fill="#041728"/>
<path d="M6.0026 14.0003C8.57993 14.0003 10.6693 12.8064 10.6693 11.3337C10.6693 9.8609 8.57993 8.66699 6.0026 8.66699C3.42528 8.66699 1.33594 9.8609 1.33594 11.3337C1.33594 12.8064 3.42528 14.0003 6.0026 14.0003Z" fill="#041728"/>
<path d="M13.9985 11.3338C13.9985 12.4384 12.6412 13.3338 10.9845 13.3338C11.4725 12.8004 11.8085 12.1304 11.8085 11.3351C11.8085 10.5384 11.4718 9.86842 10.9825 9.33442C12.6398 9.33375 13.9985 10.2298 13.9985 11.3338ZM11.9985 4.00042C11.9987 4.32223 11.9213 4.63934 11.7727 4.92482C11.6242 5.21031 11.409 5.45574 11.1453 5.64027C10.8817 5.8248 10.5774 5.94299 10.2583 5.9848C9.93925 6.02661 9.61479 5.9908 9.3125 5.88042C9.63818 5.30745 9.8089 4.65948 9.80783 4.00042C9.80783 3.31709 9.62783 2.67575 9.31317 2.12109C9.61542 2.01084 9.93981 1.97514 10.2588 2.01701C10.5778 2.05888 10.882 2.1771 11.1455 2.36161C11.4091 2.54613 11.6242 2.79151 11.7727 3.07692C11.9212 3.36233 11.9987 3.67869 11.9985 4.00042Z" fill="#041728"/>
</svg>
