<svg width="16" height="16" viewBox="0 0 16 16" fill="none" xmlns="http://www.w3.org/2000/svg">
<path fill-rule="evenodd" clip-rule="evenodd" d="M2.30803 2.30901C1.33203 3.28634 1.33203 4.85701 1.33203 7.99967C1.33203 11.1423 1.33203 12.7137 2.30803 13.6897C3.28536 14.6663 4.85603 14.6663 7.9987 14.6663C11.1414 14.6663 12.7127 14.6663 13.6887 13.6897C14.6654 12.7143 14.6654 11.1423 14.6654 7.99967C14.6654 4.85701 14.6654 3.28567 13.6887 2.30901C12.7134 1.33301 11.1414 1.33301 7.9987 1.33301C4.85603 1.33301 3.2847 1.33301 2.30803 2.30901ZM10.6654 6.66634C11.019 6.66634 11.3581 6.52587 11.6082 6.27582C11.8582 6.02577 11.9987 5.68663 11.9987 5.33301C11.9987 4.97939 11.8582 4.64025 11.6082 4.3902C11.3581 4.14015 11.019 3.99967 10.6654 3.99967C10.3117 3.99967 9.9726 4.14015 9.72256 4.3902C9.47251 4.64025 9.33203 4.97939 9.33203 5.33301C9.33203 5.68663 9.47251 6.02577 9.72256 6.27582C9.9726 6.52587 10.3117 6.66634 10.6654 6.66634ZM4.21203 8.73567C4.41195 8.54985 4.67727 8.45066 4.95007 8.45978C5.22286 8.4689 5.48097 8.58558 5.66803 8.78434L7.43336 10.6577C7.69071 10.931 8.0396 11.1001 8.41357 11.1328C8.78755 11.1655 9.16049 11.0595 9.46136 10.835C9.6593 10.6873 9.90318 10.6145 10.1497 10.6295C10.3962 10.6445 10.6295 10.7464 10.808 10.917L12.32 12.361C12.4166 12.4484 12.5435 12.4947 12.6737 12.49C12.8038 12.4853 12.927 12.43 13.017 12.3358C13.1071 12.2416 13.1567 12.116 13.1556 11.9858C13.1544 11.8555 13.1024 11.7309 13.0107 11.6383L11.4987 10.193C11.1492 9.85917 10.6927 9.65993 10.2103 9.63064C9.72789 9.60135 9.25068 9.74391 8.86336 10.033C8.75904 10.1107 8.62979 10.1473 8.50022 10.1359C8.37065 10.1244 8.24981 10.0658 8.1607 9.97101L6.39603 8.09767C6.02792 7.70693 5.52021 7.47762 4.98368 7.45976C4.44714 7.4419 3.92532 7.63694 3.53203 8.00234L2.99203 8.50367C2.89479 8.59385 2.83734 8.71896 2.83234 8.85149C2.82734 8.98401 2.87519 9.1131 2.96536 9.21034C3.05554 9.30759 3.18065 9.36503 3.31318 9.37003C3.4457 9.37503 3.57479 9.32718 3.67203 9.23701L4.21203 8.73567Z" fill="#041728" fill-opacity="0.4"/>
</svg>
